# AST/ASF file generated using VICON BodyLanguage
# -----------------------------------------------
:version 1.10
:name VICON
:units
  mass 1.0
  length 0.45
  angle deg
:documentation
   .ast/.asf automatically generated from VICON data using
   VICON BodyBuilder and BodyLanguage model FoxedUp or BRILLIANT.MOD
:root
   order TX TY TZ RX RY RZ
   axis XYZ
   position 0 0 0  
   orientation 0 0 0 
:bonedata
  begin
     id 1 
     name lhipjoint
     direction 0.635376 -0.686425 0.353719 
     length 2.47244 
     axis 0 0 0  XYZ
  end
  begin
     id 2 
     name lfemur
     direction 0.34202 -0.939693 0  
     length 7.25268  
     axis 0 0 20  XYZ
    dof rx ry rz
    limits (-160.0 20.0)
           (-70.0 70.0)
           (-60.0 70.0)
  end
  begin
     id 3 
     name ltibia
     direction 0.34202 -0.939693 0   
     length 7.6767   
     axis 0 0 20   XYZ
    dof rx
    limits (-10.0 170.0)
  end
  begin
     id 4 
     name lfoot
     direction 0.0803374 -0.220725 0.972022   
     length 2.22945   
     axis -90 7.62852e-016 20   XYZ
    dof rx rz
    limits (-45.0 90.0)
           (-70.0 20.0)
  end
  begin
     id 5 
     name ltoes
     direction 1.53579e-011 -4.21994e-011 1   
     length 1.11848   
     axis -90 7.62852e-016 20   XYZ
    dof rx
    limits (-90.0 20.0)
  end
  begin
     id 6 
     name rhipjoint
     direction -0.664428 -0.664335 0.342336   
     length 2.55466  
     axis 0 0 0  XYZ 
  end
  begin
     id 7 
     name rfemur
     direction -0.34202 -0.939693 0   
     length 6.83172   
     axis 0 0 -20   XYZ
    dof rx ry rz
    limits (-160.0 20.0)
           (-70.0 70.0)
           (-70.0 60.0)
  end
  begin
     id 8 
     name rtibia
     direction -0.34202 -0.939693 0   
     length 7.62692   
     axis 0 0 -20   XYZ
    dof rx
    limits (-10.0 170.0)
 end
 begin
     id 9 
     name rfoot
     direction -0.0949276 -0.260811 0.960711   
     length 2.19684  
     axis -90 -7.62852e-016 -20   XYZ
    dof rx rz
    limits (-45.0 90.0)
           (-20.0 70.0)
  end
  begin
     id 10 
     name rtoes
     direction -1.53543e-011 -4.2183e-011 1   
     length 1.09848   
     axis -90 -7.62852e-016 -20   XYZ
    dof rx
    limits (-90.0 20.0)
  end
  begin
     id 11 
     name lowerback
     direction 0.0118782 0.999815 -0.0151555   
     length 2.15772   
     axis 0 0 0   XYZ
    dof rx ry rz
    limits (-20.0 45.0)
           (-30.0 30.0)
           (-30.0 30.0)
  end
  begin
     id 12 
     name upperback
     direction 0.00130825 0.999065 0.0432113   
     length 2.14863   
     axis 0 0 0   XYZ
    dof rx ry rz
    limits (-20.0 45.0)
           (-30.0 30.0)
           (-30.0 30.0)
  end
  begin
     id 13 
     name thorax
     direction -0.00347005 0.998773 0.0494011   
     length 2.14936   
     axis 0 0 0   XYZ
    dof rx ry rz
    limits (-20.0 45.0)
           (-30.0 30.0)
           (-30.0 30.0)
  end
  begin
     id 14 
     name lowerneck
     direction -0.0262159 0.99424 0.103921   
     length 1.69373   
     axis 0 0 0   XYZ
    dof rx ry rz
    limits (-20.0 45.0)
           (-30.0 30.0)
           (-30.0 30.0)
  end
  begin
     id 15 
     name upperneck
     direction 0.0353511 0.977394 -0.20845   
     length 1.70857   
     axis 0 0 0   XYZ
    dof rx ry rz
    limits (-20.0 45.0)
           (-30.0 30.0)
           (-30.0 30.0)
  end
  begin
     id 16
     name head
     direction 0.0139214 0.996594 -0.0812836  
     length 1.72777  
     axis 0 0 0   XYZ
    dof rx ry rz
    limits (-20.0 45.0)
           (-30.0 30.0)
           (-30.0 30.0)
  end
  begin
     id 17 
     name lclavicle
     direction 0.841247 0.537205 -0.0609508  
     length 3.55371  
     axis 0 0 0   XYZ
    dof ry rz
    limits (-20.0 10.0)
           (0.0 20.0)
  end
  begin
     id 18 
     name lhumerus
     direction 1 -4.48964e-011 1.60116e-018   
     length 4.91377   
     axis -180 -30 -90   XYZ
    dof rx ry rz
    limits (-60.0 90.0)
           (-90.0 90.0)
           (-90.0 90.0)
  end
  begin
     id 19
     name lradius
     direction 1 -4.48989e-011 -8.93847e-027   
     length 3.00291   
     axis -180 -30 -90   XYZ
    dof rx
    limits (-10.0 170.0)
  end
  begin
     id 20
     name lwrist
     direction 1 -4.48932e-011 -7.31504e-027   
     length 1.50145   
     axis 5.74121e-015 90 90   XYZ
    dof ry
    limits (-180.0 0.0)
 end
  begin
     id 21 
     name lhand
     direction 1 -4.48971e-011 -1.46301e-026   
     length 0.450922   
     axis 9.33524e-015 90 90   XYZ
    dof rx rz
    limits (-90.0 90.0)
           (-45.0 45.0)
  end
  begin
     id 22 
     name lfingers
     direction 1 -4.49039e-011 -2.92602e-026   
     length 0.363545   
     axis 1.86705e-014 90 90   XYZ
    dof rx
    limits (0.0 90.0)
  end
  begin
     id 23
     name lthumb
     direction 0.707107 -6.34941e-011 0.707107   
     length 0.52198   
     axis -90 45 2.85299e-015   XYZ
    dof rx rz
    limits (-45.0 45.0)
           (-45.0 45.0)
  end
  begin
     id 24 
     name rclavicle
     direction -0.825079 0.56158 -0.0622297   
     length 3.39909  
     axis 0 0 0   XYZ 
    dof ry rz
    limits (-10.0 20.0)
           (-20.0 0.0)
  end
  begin
     id 25 
     name rhumerus
     direction -1 -4.48965e-011 1.61691e-027  
     length 4.86725   
     axis -180 30 90   XYZ
    dof rx ry rz
    limits (-90.0 60.0)
           (-90.0 90.0)
           (-90.0 90.0)
  end
  begin
     id 26 
     name rradius
     direction -1 -4.48964e-011 -2.25776e-027   
     length 3.17144   
     axis -180 30 90   XYZ
    dof rx
    limits (-10.0 170.0)
  end
  begin
     id 27 
     name rwrist
     direction -1 -4.48961e-011 -7.31504e-027   
     length 1.58572   
     axis 5.74121e-015 -90 -90   XYZ
    dof ry
    limits (-180.0 0.0)
  end
  begin
     id 28
     name rhand
     direction -1 -4.49013e-011 -1.46301e-026   
     length 0.419368   
     axis 9.33524e-015 -90 -90   XYZ
    dof rx rz
    limits (-90.0 90.0)
           (-45.0 45.0)
  end
  begin
     id 29
     name rfingers
     direction -1 -4.489e-011 -2.92602e-026   
     length 0.338105   
     axis 1.86705e-014 -90 -90   XYZ
    dof rx
    limits (0.0 90.0)
  end
  begin
     id 30
     name rthumb
     direction -0.707107 -6.35022e-011 0.707107   
     length 0.485453   
     axis -90 -45 -2.85299e-015   XYZ
    dof rx rz
    limits (-45.0 45.0)
           (-45.0 45.0)
  end
:hierarchy
  begin
    root lhipjoint rhipjoint lowerback
    lhipjoint lfemur
    lfemur ltibia
    ltibia lfoot
    lfoot ltoes
    rhipjoint rfemur
    rfemur rtibia
    rtibia rfoot
    rfoot rtoes
    lowerback upperback
    upperback thorax
    thorax lowerneck lclavicle rclavicle
    lowerneck upperneck
    upperneck head
    lclavicle lhumerus
    lhumerus lradius
    lradius lwrist
    lwrist lhand lthumb
    lhand lfingers
    rclavicle rhumerus
    rhumerus rradius
    rradius rwrist
    rwrist rhand rthumb
    rhand rfingers
  end

#!OML:ASF H:\Swim 2\Project 1\Capture day 1\Session 1\male.ASF
:FULLY-SPECIFIED
:DEGREES
725
root 7.49276 9.67352 10.7147 83.8138 0.523095 4.54088
lowerback 3.1536 3.90138 -2.0306
upperback 1.23446 5.1173 1.05812
thorax -0.769633 2.54106 2.01406
lowerneck -1.25129 -6.19786 -15.102
upperneck 8.90895 -10.6356 33.9773
head 5.6969 -4.67576 13.8444
rclavicle -5.725e-014 2.68359e-015
rhumerus 64.0835 -26.1241 -18.3722
rradius 86.11
rwrist -58.9737
rhand -42.7153 -16.534
rfingers 7.12502
rthumb -15.5842 -45.9262
lclavicle -5.725e-014 2.68359e-015
lhumerus 89.7812 8.49874 46.4189
lradius 82.4856
lwrist 43.3961
lhand -47.183 10.3626
lfingers 7.12502
lthumb -19.8832 39.3655
rfemur -60.1509 -40.9457 -11.7315
rtibia 141.105
rfoot -0.665633 46.7375
rtoes -6.85021
lfemur -60.0951 18.0513 7.51021
ltibia 142.468
lfoot -20.0203 -23.6125
ltoes -9.57039
726
root 7.49417 9.69355 10.7509 84.2716 0.484869 4.55783
lowerback 2.7655 3.83162 -1.95282
upperback 1.12633 5.03579 0.925745
thorax -0.641402 2.50178 1.86334
lowerneck -1.46165 -6.0766 -14.9442
upperneck 9.18929 -10.5171 33.9247
head 5.77173 -4.57944 13.8102
rclavicle -6.67916e-014 5.1684e-015
rhumerus 65.0802 -26.9399 -18.4758
rradius 84.0548
rwrist -58.9629
rhand -42.4385 -16.7295
rfingers 7.12502
rthumb -15.3175 -46.1422
lclavicle -6.67916e-014 5.1684e-015
lhumerus 90.7551 9.40354 46.5816
lradius 80.3454
lwrist 43.1379
lhand -46.4019 10.7808
lfingers 7.12502
lthumb -19.1322 39.8598
rfemur -58.7587 -41.5269 -15.4463
rtibia 141.515
rfoot -2.81696 46.591
rtoes -7.6115
lfemur -59.5035 18.13 10.3691
ltibia 142.835
lfoot -20.1499 -23.1875
ltoes -8.49698
727
root 7.4949 9.71172 10.7908 84.7753 0.435407 4.54247
lowerback 2.33207 3.77749 -1.89094
upperback 0.996188 4.97562 0.790137
thorax -0.512845 2.47352 1.71898
lowerneck -1.64585 -5.96352 -14.793
upperneck 9.4635 -10.4116 33.8831
head 5.84522 -4.492 13.782
rclavicle -2.8625e-014 4.57205e-015
rhumerus 66.0763 -27.725 -18.5097
rradius 81.8712
rwrist -58.737
rhand -42.0325 -16.7595
rfingers 7.12502
rthumb -14.9264 -46.2016
lclavicle -2.8625e-014 4.57205e-015
lhumerus 91.7315 10.2773 46.7558
lradius 78.1312
lwrist 42.9214
lhand -45.5168 10.933
lfingers 7.12502
lthumb -18.2809 40.094
rfemur -57.6141 -41.3586 -18.5675
rtibia 141.564
rfoot -4.75028 45.8568
rtoes -7.71575
lfemur -58.9186 17.7929 12.8858
ltibia 142.859
lfoot -20.1064 -22.2758
ltoes -7.31981
728
root 7.49519 9.72776 10.8337 85.3295 0.37866 4.49904
lowerback 1.84635 3.73642 -1.83871
upperback 0.845742 4.93379 0.65316
thorax -0.377577 2.45469 1.58036
lowerneck -1.8021 -5.85974 -14.6706
upperneck 9.7211 -10.3193 33.8695
head 5.91648 -4.41484 13.7721
rclavicle -4.13472e-014 -1.78906e-015
rhumerus 67.088 -28.4759 -18.4833
rradius 79.5222
rwrist -58.2456
rhand -41.435 -16.5863
rfingers 7.12502
rthumb -14.3508 -46.0703
lclavicle -4.13472e-014 -1.78906e-015
lhumerus 92.7193 11.1232 46.9348
lradius 75.8027
lwrist 42.6736
lhand -44.5918 10.7363
lfingers 7.12502
lthumb -17.3908 39.9784
rfemur -56.7385 -40.5561 -21.0216
rtibia 141.271
rfoot -6.37231 44.5829
rtoes -7.19818
lfemur -58.3296 17.0946 15.0099
ltibia 142.551
lfoot -19.8436 -20.9857
ltoes -5.83843
729
root 7.49515 9.74152 10.8792 85.9368 0.314571 4.42917
lowerback 1.30088 3.70551 -1.79695
upperback 0.676222 4.90674 0.516464
thorax -0.230022 2.44343 1.45058
lowerneck -1.93285 -5.76135 -14.5781
upperneck 9.96445 -10.2342 33.88
head 5.98458 -4.34497 13.7795
rclavicle -6.99722e-014 -4.37326e-015
rhumerus 68.1363 -29.1895 -18.4104
rradius 76.9786
rwrist -57.4909
rhand -40.6238 -16.1241
rfingers 7.12502
rthumb -13.569 -45.662
lclavicle -6.99722e-014 -4.37326e-015
lhumerus 93.723 11.9484 47.1104
lradius 73.3194
lwrist 42.3169
lhand -43.6795 10.1427
lfingers 7.12502
lthumb -16.5126 39.4601
rfemur -56.1025 -39.206 -22.7964
rtibia 140.655
rfoot -7.66101 42.8158
rtoes -6.18189
lfemur -57.7169 16.1178 16.7189
ltibia 141.924
lfoot -19.4072 -19.3552
ltoes -4.12395
730
root 7.49526 9.75312 10.9262 86.6178 0.253107 4.35594
lowerback 0.675092 3.67595 -1.75243
upperback 0.482135 4.88346 0.381399
thorax -0.0627998 2.43431 1.32535
lowerneck -2.04505 -5.66547 -14.5088
upperneck 10.1995 -10.1523 33.9024
head 6.04991 -4.27931 13.7975
rclavicle 1.59028e-014 -1.98785e-016
rhumerus 69.2507 -29.8705 -18.3324
rradius 74.1948
rwrist -56.3207
rhand -39.5289 -15.5008
rfingers 7.12502
rthumb -12.5136 -45.1061
lclavicle 1.59028e-014 -1.98785e-016
lhumerus 94.7445 12.7555 47.2716
lradius 70.6623
lwrist 41.7906
lhand -42.8513 9.19185
lfingers 7.12502
lthumb -15.7152 38.5737
rfemur -55.5732 -37.6547 -24.0834
rtibia 139.756
rfoot -8.69032 40.7747
rtoes -4.76499
lfemur -57.1071 14.9731 18.0369
ltibia 141.011
lfoot -18.8411 -17.4702
ltoes -2.21533
731
root 7.49545 9.76318 10.9743 87.3459 0.191737 4.28236
lowerback -0.00315563 3.64517 -1.70765
upperback 0.271589 4.85974 0.249223
thorax 0.11667 2.42511 1.20573
lowerneck -2.13957 -5.57111 -14.4512
upperneck 10.4271 -10.0718 33.9278
head 6.11091 -4.21668 13.8197
rclavicle -2.8625e-014 -6.95746e-015
rhumerus 70.4135 -30.4981 -18.2509
rradius 71.2331
rwrist -54.9016
rhand -38.2897 -14.5681
rfingers 7.12502
rthumb -11.3187 -44.2427
lclavicle -2.8625e-014 -6.95746e-015
lhumerus 95.7857 13.5398 47.433
lradius 67.8327
lwrist 41.0392
lhand -42.0832 8.03068
lfingers 7.12502
lthumb -14.9753 37.4692
rfemur -55.1122 -35.7782 -24.8803
rtibia 138.596
rfoot -9.50415 38.3458
rtoes -3.31909
lfemur -56.4475 13.7409 19.0113
ltibia 139.828
lfoot -18.2044 -15.4008
ltoes -0.136946
